# xmcd
#
# Track frame offsets: 
#        150
#        27878
#        42922
#        69730
#        94325
#        118887
#        135417
#        152699
#        180220
#        204826
#        223746
#        245773
#        261562
#        285340
#        310112
#
# Disc length: 4369 seconds
#
# Revision: 1
# Processed by: cddbd v1.5.2PL0 Copyright (c) Steve Scherf et al.
# Submitted via: ExactAudioCopyFreeDBPlugin 1.0
#
DISCID=d7110f0f
DTITLE=Various Artist - Euro Smash Dance 1CD
DYEAR=1998
DGENRE=Euro-House
TTITLE0=S.O.S. with Ever A.Di - Jeopardy (Mix Version)
TTITLE1=DJ Alvin - Ma Baker (Radio Edit)
TTITLE2=Blue Jam - La Luna (Guitar Version)
TTITLE3=J.K. - Sweet Lady Night (House Bump Extended)
TTITLE4=Whigfield - No Tears To Cry (Original Extended)
TTITLE5=Blizzard - Living In The Night (Euro Radio Mix)
TTITLE6=Ally and Jo - Holding You (M.B.R.G. Edit)
TTITLE7=D.C. Mark - Baby Love (Mix Version)
TTITLE8=New System - Let You Dance (Mix Version)
TTITLE9=Anne Marie C. - I Wanna Jump (Wet Bass Mix)
TTITLE10=M.K.Z.E. - Shining Ray (Extended Mix
TTITLE11=Whigfield - Saturday Night '98 (Radio Cut '98)
TTITLE12=Tracy - Push! (Mix Version)
TTITLE13=K.M. - Dance (Mix Version)
TTITLE14=Real Joy - La Dance D'Helene
EXTD=
EXTT0=
EXTT1=
EXTT2=
EXTT3=
EXTT4=
EXTT5=
EXTT6=
EXTT7=
EXTT8=
EXTT9=
EXTT10=
EXTT11=
EXTT12=
EXTT13=
EXTT14=
PLAYORDER=
